<svg width="30" height="30" viewBox="0 0 30 30" fill="none" xmlns="http://www.w3.org/2000/svg">
<rect y="0.00012207" width="30" height="30" rx="15" fill="white"/>
<g clip-path="url(#clip0_8498_7899)">
<path d="M10.5839 22.5001H6.95573V10.8165H10.5839V22.5001ZM8.76784 9.22275C7.60769 9.22275 6.66667 8.26182 6.66667 7.10166C6.66667 6.54439 6.88804 6.00995 7.28209 5.61591C7.67614 5.22186 8.21058 5.00049 8.76784 5.00049C9.32511 5.00049 9.85955 5.22186 10.2536 5.61591C10.6476 6.00995 10.869 6.54439 10.869 7.10166C10.869 8.26182 9.92761 9.22275 8.76784 9.22275ZM24.1628 22.5001H20.5425V16.8126C20.5425 15.4571 20.5151 13.7188 18.6561 13.7188C16.7698 13.7188 16.4807 15.1915 16.4807 16.7149V22.5001H12.8565V10.8165H16.3362V12.4103H16.387C16.8714 11.4923 18.0546 10.5235 19.8198 10.5235C23.4917 10.5235 24.1667 12.9415 24.1667 16.0821V22.5001H24.1628Z" fill="#0071B9"/>
</g>
<defs>
<clipPath id="clip0_8498_7899">
<rect width="20" height="20" fill="white" transform="translate(5 5.00012)"/>
</clipPath>
</defs>
</svg>
