<svg width="184" height="65" viewBox="0 0 184 65" fill="none" xmlns="http://www.w3.org/2000/svg">
<path d="M7.37748 50.8345V57.5883H6.30859V50.8345H7.37748Z" fill="white"/>
<path d="M10.5624 53.02C11.2228 53.02 11.7266 53.2379 12.0806 53.6668C12.4346 54.0957 12.6116 54.6472 12.6116 55.3008V55.6752H9.4458C9.46622 56.0225 9.58876 56.2948 9.79982 56.4854C10.0109 56.6761 10.3036 56.7714 10.6781 56.7714C11.1819 56.7714 11.5632 56.6012 11.8151 56.2676L12.5231 56.8258C12.067 57.3909 11.4474 57.6769 10.6577 57.6769C9.97003 57.6769 9.41856 57.459 8.99645 57.0233C8.57433 56.5876 8.36328 56.0293 8.36328 55.3553C8.36328 54.6744 8.56753 54.1161 8.97602 53.6736C9.39133 53.2447 9.92239 53.02 10.5624 53.02ZM10.5487 53.8779C10.2356 53.8779 9.97683 53.9732 9.77939 54.1638C9.58195 54.3544 9.47304 54.6064 9.45261 54.9195H11.5564C11.5428 54.6064 11.4474 54.3544 11.2704 54.1638C11.0934 53.9732 10.8551 53.8779 10.5487 53.8779Z" fill="white"/>
<path d="M17.3387 53.02C17.9651 53.02 18.4894 53.1698 18.9047 53.4762L18.4893 54.2659C18.1285 54.014 17.7404 53.8915 17.3183 53.8915C16.8622 53.8915 16.6307 54.0413 16.6307 54.334C16.6307 54.477 16.692 54.5859 16.8077 54.654C16.9234 54.7221 17.1481 54.797 17.4817 54.8787C17.9923 55.0012 18.3668 55.1715 18.6051 55.3961C18.8434 55.6208 18.9659 55.8931 18.9659 56.2335C18.9659 56.6693 18.7957 57.0233 18.4621 57.2888C18.1285 57.5543 17.6723 57.6837 17.1004 57.6837C16.3856 57.6837 15.8137 57.5135 15.3848 57.1663L15.8273 56.3561C16.1881 56.6556 16.6171 56.8122 17.1073 56.8122C17.6315 56.8122 17.8902 56.6556 17.8902 56.3425C17.8902 56.1859 17.8289 56.0701 17.7064 55.9884C17.5838 55.9067 17.366 55.825 17.0528 55.7501C16.5286 55.6344 16.1405 55.471 15.909 55.2668C15.6707 55.0625 15.555 54.7902 15.555 54.4429C15.555 54.0072 15.7116 53.66 16.0316 53.4081C16.3447 53.1494 16.7805 53.02 17.3387 53.02Z" fill="white"/>
<path d="M21.912 53.02C22.5724 53.02 23.0762 53.2379 23.4302 53.6668C23.7842 54.0957 23.9613 54.6472 23.9613 55.3008V55.6752H20.7954C20.8158 56.0225 20.9384 56.2948 21.1494 56.4854C21.3605 56.6761 21.6532 56.7714 22.0277 56.7714C22.5315 56.7714 22.9128 56.6012 23.1647 56.2676L23.8727 56.8258C23.4166 57.3909 22.797 57.6769 22.0073 57.6769C21.3196 57.6769 20.7682 57.459 20.3461 57.0233C19.9239 56.5876 19.7129 56.0293 19.7129 55.3553C19.7129 54.6744 19.9171 54.1161 20.3256 53.6736C20.7409 53.2447 21.2652 53.02 21.912 53.02ZM21.8915 53.8779C21.5783 53.8779 21.3196 53.9732 21.1222 54.1638C20.9247 54.3544 20.8158 54.6064 20.7954 54.9195H22.8992C22.8855 54.6064 22.7902 54.3544 22.6132 54.1638C22.4362 53.9732 22.2047 53.8779 21.8915 53.8779Z" fill="white"/>
<path d="M27.2708 53.02V54.0889H27.1755C26.7193 54.0889 26.3313 54.3136 26.0113 54.7629V57.5884H24.9355V53.1085H25.8955L25.9568 53.7008C26.0793 53.5034 26.2563 53.34 26.481 53.2107C26.7057 53.0813 26.9712 53.02 27.2708 53.02Z" fill="white"/>
<path d="M32.3975 53.1152L30.0283 57.6836H29.9942L27.6113 53.1152H28.7687L30.0147 55.6956L31.2674 53.1152H32.3975Z" fill="white"/>
<path d="M33.1877 51.2087C33.3103 51.0793 33.4669 51.0181 33.6575 51.0181C33.8481 51.0181 34.0047 51.0793 34.1341 51.2087C34.2634 51.3381 34.3247 51.4947 34.3247 51.6853C34.3247 51.8759 34.2634 52.0325 34.1341 52.1551C34.0047 52.2776 33.8481 52.3389 33.6575 52.3389C33.4669 52.3389 33.3103 52.2776 33.1877 52.1551C33.0652 52.0325 33.0039 51.8759 33.0039 51.6853C33.0039 51.4947 33.0652 51.3312 33.1877 51.2087ZM34.2022 53.115V57.5949H33.1265V53.115H34.2022Z" fill="white"/>
<path d="M37.4634 53.02C38.2395 53.02 38.8454 53.3536 39.2744 54.0277L38.5254 54.5859C38.2667 54.1638 37.9127 53.9528 37.4702 53.9528C37.0889 53.9528 36.7962 54.0821 36.5783 54.3408C36.3672 54.5995 36.2583 54.9331 36.2583 55.3416C36.2583 55.7433 36.3672 56.0769 36.5851 56.3425C36.803 56.608 37.0957 56.7373 37.4702 56.7373C37.9195 56.7373 38.2804 56.5263 38.5527 56.1042L39.2812 56.6556C38.8659 57.3297 38.2599 57.6701 37.4566 57.6701C36.7825 57.6701 36.2311 57.4522 35.8089 57.0097C35.3868 56.574 35.1758 56.0157 35.1758 55.3416C35.1758 54.6608 35.3868 54.1025 35.8089 53.6668C36.2311 53.2447 36.7825 53.02 37.4634 53.02Z" fill="white"/>
<path d="M42.0526 53.02C42.713 53.02 43.2168 53.2379 43.5708 53.6668C43.9249 54.0957 44.1019 54.6472 44.1019 55.3008V55.6752H40.936C40.9565 56.0225 41.079 56.2948 41.2901 56.4854C41.5011 56.6761 41.7939 56.7714 42.1683 56.7714C42.6721 56.7714 43.0534 56.6012 43.3053 56.2676L44.0134 56.8258C43.5572 57.3909 42.9377 57.6769 42.1479 57.6769C41.4603 57.6769 40.9088 57.459 40.4867 57.0233C40.0646 56.5876 39.8535 56.0293 39.8535 55.3553C39.8535 54.6744 40.0578 54.1161 40.4663 53.6736C40.8748 53.2447 41.4058 53.02 42.0526 53.02ZM42.0322 53.8779C41.719 53.8779 41.4603 53.9732 41.2628 54.1638C41.0654 54.3544 40.9565 54.6064 40.936 54.9195H43.0398C43.0262 54.6064 42.9309 54.3544 42.7539 54.1638C42.5768 53.9732 42.3385 53.8779 42.0322 53.8779Z" fill="white"/>
<path d="M49.6289 53.02C50.2281 53.02 50.7183 53.2379 51.0927 53.6736C51.474 54.1093 51.6646 54.6676 51.6646 55.3485C51.6646 56.0225 51.474 56.5807 51.0927 57.0165C50.7115 57.4522 50.2281 57.6769 49.6289 57.6769C49.0502 57.6769 48.6077 57.4999 48.3081 57.1458V59.6309H47.2324V53.1085H48.1992L48.2401 53.6328C48.5464 53.2311 49.0026 53.02 49.6289 53.02ZM49.3907 53.9664C48.9345 53.9664 48.5737 54.191 48.3081 54.6336V56.077C48.5737 56.5195 48.9345 56.7442 49.3907 56.7442C49.7447 56.7442 50.0306 56.6216 50.2553 56.3697C50.4732 56.1178 50.5821 55.7842 50.5821 55.3621C50.5821 54.94 50.4732 54.6063 50.2553 54.3544C50.0306 54.0889 49.7447 53.9664 49.3907 53.9664Z" fill="white"/>
<path d="M56.5873 53.1152V57.5951H55.6273L55.5729 57.0776C55.2733 57.4793 54.8171 57.6836 54.2044 57.6836C53.6938 57.6836 53.2989 57.5134 53.0198 57.1661C52.7406 56.8189 52.5977 56.3492 52.5977 55.75V53.122H53.6734V55.7024C53.6734 56.0019 53.7483 56.2334 53.8912 56.4104C54.0342 56.5875 54.2385 56.676 54.4904 56.676C54.8852 56.676 55.2325 56.4717 55.5184 56.0564V53.122H56.5873V53.1152Z" fill="white"/>
<path d="M58.9439 50.8345V53.551C59.2503 53.1969 59.6928 53.0199 60.2647 53.0199C60.8707 53.0199 61.3608 53.2378 61.7421 53.6735C62.1234 54.1092 62.314 54.6675 62.314 55.3484C62.314 56.0224 62.1234 56.5807 61.7421 57.0164C61.3608 57.4521 60.8707 57.6768 60.2647 57.6768C59.652 57.6768 59.189 57.4725 58.8894 57.064L58.835 57.5883H57.875V50.8345H58.9439ZM60.0332 53.9663C59.5839 53.9663 59.2162 54.1909 58.9371 54.6335V56.0769C59.2162 56.5194 59.5771 56.7441 60.0332 56.7441C60.3805 56.7441 60.6664 56.6215 60.8911 56.3696C61.1157 56.1177 61.2247 55.7841 61.2247 55.362C61.2247 54.9399 61.1157 54.6062 60.8911 54.3543C60.6664 54.0888 60.3805 53.9663 60.0332 53.9663Z" fill="white"/>
<path d="M64.3619 50.8345V57.5883H63.293V50.8345H64.3619Z" fill="white"/>
<path d="M65.7112 51.2087C65.8337 51.0793 65.9903 51.0181 66.181 51.0181C66.3716 51.0181 66.5282 51.0793 66.6575 51.2087C66.7869 51.3381 66.8482 51.4947 66.8482 51.6853C66.8482 51.8759 66.7869 52.0325 66.6575 52.1551C66.5282 52.2776 66.3716 52.3389 66.181 52.3389C65.9903 52.3389 65.8337 52.2776 65.7112 52.1551C65.5886 52.0325 65.5273 51.8759 65.5273 51.6853C65.5273 51.4947 65.5886 51.3312 65.7112 51.2087ZM66.7256 53.115V57.5949H65.6499V53.115H66.7256Z" fill="white"/>
<path d="M69.9868 53.02C70.763 53.02 71.3689 53.3536 71.7978 54.0277L71.0489 54.5859C70.7902 54.1638 70.4361 53.9528 69.9936 53.9528C69.6123 53.9528 69.3196 54.0821 69.1017 54.3408C68.8907 54.5995 68.7817 54.9331 68.7817 55.3416C68.7817 55.7433 68.8907 56.0769 69.1085 56.3425C69.3264 56.608 69.6192 56.7373 69.9936 56.7373C70.443 56.7373 70.8038 56.5263 71.0761 56.1042L71.8046 56.6556C71.3893 57.3297 70.7834 57.6701 69.98 57.6701C69.306 57.6701 68.7545 57.4522 68.3324 57.0097C67.9103 56.574 67.6992 56.0157 67.6992 55.3416C67.6992 54.6608 67.9103 54.1025 68.3324 53.6668C68.7545 53.2447 69.306 53.02 69.9868 53.02Z" fill="white"/>
<path d="M76.7342 53.02C77.3946 53.02 77.8984 53.2379 78.2525 53.6668C78.6065 54.0957 78.7835 54.6472 78.7835 55.3008V55.6752H75.6177C75.6381 56.0225 75.7606 56.2948 75.9717 56.4854C76.1828 56.6761 76.4755 56.7714 76.85 56.7714C77.3538 56.7714 77.7351 56.6012 77.987 56.2676L78.695 56.8258C78.2389 57.3909 77.6193 57.6769 76.8295 57.6769C76.1419 57.6769 75.5904 57.459 75.1683 57.0233C74.7462 56.5876 74.5352 56.0293 74.5352 55.3553C74.5352 54.6744 74.7394 54.1161 75.1479 53.6736C75.5564 53.2447 76.0875 53.02 76.7342 53.02ZM76.7138 53.8779C76.4006 53.8779 76.1419 53.9732 75.9445 54.1638C75.747 54.3544 75.6381 54.6064 75.6177 54.9195H77.7214C77.7078 54.6064 77.6125 54.3544 77.4355 54.1638C77.2653 53.9732 77.0202 53.8779 76.7138 53.8779Z" fill="white"/>
<path d="M82.1173 53.02C82.6484 53.02 83.0637 53.197 83.3632 53.5443C83.6628 53.8915 83.8058 54.3681 83.8058 54.9672V57.5884H82.7369V55.0285C82.7369 54.7289 82.6552 54.4838 82.4918 54.3068C82.3284 54.123 82.1105 54.0345 81.8382 54.0345C81.4365 54.0345 81.0961 54.2387 80.8237 54.654V57.5884H79.748V53.1085H80.7148L80.7625 53.626C81.0688 53.2243 81.5182 53.02 82.1173 53.02Z" fill="white"/>
<path d="M86.7749 53.02C87.4013 53.02 87.8642 53.2243 88.1502 53.6328L88.2046 53.1085H89.1646V57.4386C89.1646 58.1467 88.9536 58.6981 88.5382 59.1066C88.1229 59.5151 87.5579 59.7194 86.8566 59.7194C85.9851 59.7194 85.2771 59.3994 84.7324 58.7662L85.4337 58.0718C85.8354 58.5415 86.3051 58.773 86.8362 58.773C87.2243 58.773 87.5238 58.6505 87.7485 58.4122C87.9732 58.1739 88.0889 57.8539 88.0957 57.459V57.0846C87.7961 57.4454 87.3536 57.6292 86.7749 57.6292C86.1758 57.6292 85.6856 57.4114 85.3111 56.9756C84.9298 56.5399 84.746 55.9884 84.746 55.3212C84.746 54.654 84.9367 54.1025 85.3111 53.6668C85.6856 53.2379 86.1758 53.02 86.7749 53.02ZM86.9996 53.9664C86.6523 53.9664 86.3664 54.0889 86.1417 54.3408C85.917 54.5927 85.8081 54.9195 85.8081 55.328C85.8081 55.7365 85.917 56.0633 86.1417 56.322C86.3664 56.5739 86.6523 56.6965 86.9996 56.6965C87.4625 56.6965 87.8234 56.4718 88.0957 56.0293V54.6336C87.8302 54.1842 87.4625 53.9664 86.9996 53.9664Z" fill="white"/>
<path d="M92.1549 53.02C92.7473 53.02 93.1966 53.2243 93.4962 53.6328L93.5506 53.1085H94.5106V57.5884H93.5506L93.4962 57.0641C93.1966 57.4726 92.7473 57.6769 92.1549 57.6769C91.5558 57.6769 91.0724 57.459 90.7048 57.0165C90.3371 56.5807 90.1465 56.0225 90.1465 55.3485C90.1465 54.6676 90.3303 54.1093 90.7048 53.6736C91.0792 53.2379 91.5626 53.02 92.1549 53.02ZM92.3864 53.9664C92.0392 53.9664 91.76 54.0889 91.549 54.3408C91.3379 54.5927 91.2358 54.9263 91.2358 55.3485C91.2358 55.7706 91.3379 56.1042 91.549 56.3561C91.76 56.608 92.0392 56.7305 92.3864 56.7305C92.8153 56.7305 93.1626 56.5059 93.4417 56.0633V54.62C93.1694 54.1842 92.8153 53.9664 92.3864 53.9664Z" fill="white"/>
<path d="M97.5269 53.02C98.1532 53.02 98.6162 53.2243 98.9021 53.6328L98.9566 53.1085H99.9166V57.4386C99.9166 58.1467 99.7055 58.6981 99.2902 59.1066C98.8749 59.5151 98.3098 59.7194 97.6086 59.7194C96.7371 59.7194 96.029 59.3994 95.4844 58.7662L96.1856 58.0718C96.5873 58.5415 97.0571 58.773 97.5881 58.773C97.9762 58.773 98.2758 58.6505 98.5005 58.4122C98.7251 58.1739 98.8409 57.8539 98.8477 57.459V57.0846C98.5481 57.4454 98.1056 57.6292 97.5269 57.6292C96.9277 57.6292 96.4375 57.4114 96.0631 56.9756C95.6818 56.5399 95.498 55.9884 95.498 55.3212C95.498 54.654 95.6886 54.1025 96.0631 53.6668C96.4375 53.2379 96.9277 53.02 97.5269 53.02ZM97.7583 53.9664C97.4111 53.9664 97.1252 54.0889 96.9005 54.3408C96.6758 54.5927 96.5669 54.9195 96.5669 55.328C96.5669 55.7365 96.6758 56.0633 96.9005 56.322C97.1252 56.5739 97.4111 56.6965 97.7583 56.6965C98.2213 56.6965 98.5822 56.4718 98.8545 56.0293V54.6336C98.5822 54.1842 98.2213 53.9664 97.7583 53.9664Z" fill="white"/>
<path d="M103.096 53.0197C103.756 53.0197 104.26 53.2376 104.614 53.6665C104.968 54.0954 105.145 54.6469 105.145 55.3005V55.6749H101.979C101.999 56.0222 102.122 56.2945 102.333 56.4851C102.544 56.6758 102.837 56.7711 103.211 56.7711C103.715 56.7711 104.096 56.6009 104.348 56.2673L105.056 56.8255C104.6 57.3906 103.981 57.6766 103.191 57.6766C102.503 57.6766 101.952 57.4587 101.53 57.023C101.108 56.5873 100.896 56.029 100.896 55.3549C100.896 54.6741 101.101 54.1158 101.509 53.6733C101.925 53.2444 102.449 53.0197 103.096 53.0197ZM103.082 53.8776C102.769 53.8776 102.51 53.9729 102.313 54.1635C102.115 54.3541 102.006 54.606 101.986 54.9192H104.09C104.076 54.606 103.981 54.3541 103.804 54.1635C103.627 53.9729 103.388 53.8776 103.082 53.8776ZM104.968 51.2632L103.518 52.4819H102.524L103.722 51.2632H104.968Z" fill="white"/>
<path d="M110.672 53.02C111.271 53.02 111.761 53.2379 112.136 53.6736C112.51 54.1093 112.701 54.6676 112.701 55.3485C112.701 56.0225 112.51 56.5807 112.136 57.0165C111.754 57.4522 111.271 57.6769 110.672 57.6769C110.093 57.6769 109.651 57.4999 109.344 57.1458V59.6309H108.275V53.1085H109.242L109.29 53.6328C109.589 53.2311 110.052 53.02 110.672 53.02ZM110.434 53.9664C109.977 53.9664 109.617 54.191 109.351 54.6336V56.077C109.617 56.5195 109.977 56.7442 110.434 56.7442C110.788 56.7442 111.074 56.6216 111.298 56.3697C111.516 56.1178 111.625 55.7842 111.625 55.3621C111.625 54.94 111.516 54.6063 111.298 54.3544C111.08 54.0889 110.788 53.9664 110.434 53.9664Z" fill="white"/>
<path d="M115.792 53.02C116.466 53.02 117.025 53.2379 117.467 53.6804C117.91 54.123 118.128 54.6812 118.128 55.3553C118.128 56.0225 117.91 56.5807 117.467 57.0165C117.025 57.4522 116.466 57.6769 115.792 57.6769C115.125 57.6769 114.567 57.459 114.131 57.0165C113.695 56.5807 113.471 56.0225 113.471 55.3553C113.471 54.6812 113.689 54.123 114.131 53.6804C114.574 53.2379 115.125 53.02 115.792 53.02ZM116.691 54.3613C116.453 54.0957 116.153 53.9664 115.792 53.9664C115.431 53.9664 115.132 54.0957 114.907 54.3613C114.676 54.6268 114.56 54.9604 114.56 55.3621C114.56 55.7638 114.676 56.0974 114.907 56.3561C115.139 56.6148 115.431 56.7442 115.792 56.7442C116.153 56.7442 116.453 56.6148 116.691 56.3561C116.929 56.0974 117.045 55.7706 117.045 55.3621C117.045 54.9604 116.929 54.6268 116.691 54.3613Z" fill="white"/>
<path d="M123.05 53.1152V57.5951H122.09L122.036 57.0776C121.736 57.4793 121.28 57.6836 120.667 57.6836C120.157 57.6836 119.762 57.5134 119.483 57.1661C119.204 56.8189 119.061 56.3492 119.061 55.75V53.122H120.136V55.7024C120.136 56.0019 120.211 56.2334 120.354 56.4104C120.497 56.5875 120.701 56.676 120.953 56.676C121.348 56.676 121.695 56.4717 121.981 56.0564V53.122H123.05V53.1152Z" fill="white"/>
<path d="M126.658 53.02V54.0889H126.562C126.106 54.0889 125.718 54.3136 125.398 54.7629V57.5884H124.322V53.1085H125.282L125.344 53.7008C125.466 53.5034 125.643 53.34 125.868 53.2107C126.092 53.0881 126.358 53.02 126.658 53.02Z" fill="white"/>
<path d="M133.875 53.1152L131.499 57.6836H131.465L129.082 53.1152H130.239L131.485 55.6956L132.738 53.1152H133.875Z" fill="white"/>
<path d="M136.402 53.02C137.076 53.02 137.634 53.2379 138.077 53.6804C138.519 54.123 138.737 54.6812 138.737 55.3553C138.737 56.0225 138.519 56.5807 138.077 57.0165C137.634 57.4522 137.076 57.6769 136.402 57.6769C135.734 57.6769 135.176 57.459 134.74 57.0165C134.305 56.5807 134.08 56.0225 134.08 55.3553C134.08 54.6812 134.298 54.123 134.74 53.6804C135.183 53.2379 135.728 53.02 136.402 53.02ZM137.3 54.3613C137.062 54.0957 136.763 53.9664 136.402 53.9664C136.041 53.9664 135.741 54.0957 135.517 54.3613C135.285 54.6268 135.169 54.9604 135.169 55.3621C135.169 55.7638 135.285 56.0974 135.517 56.3561C135.748 56.6148 136.041 56.7442 136.402 56.7442C136.763 56.7442 137.062 56.6148 137.3 56.3561C137.539 56.0974 137.654 55.7706 137.654 55.3621C137.654 54.9604 137.532 54.6268 137.3 54.3613Z" fill="white"/>
<path d="M141.148 51.6108V53.1155H142.496V54.021H141.148V56.009C141.148 56.2269 141.209 56.3971 141.331 56.5264C141.454 56.649 141.617 56.7103 141.822 56.7103C142.039 56.7103 142.25 56.6626 142.455 56.5605L142.741 57.4251C142.475 57.5953 142.142 57.6838 141.747 57.6838C141.222 57.6838 140.814 57.5409 140.521 57.2481C140.222 56.9553 140.079 56.5468 140.079 56.0158V54.0278H139.234V53.1223H140.079V51.6177H141.148V51.6108Z" fill="white"/>
<path d="M145.79 53.02V54.0889H145.695C145.239 54.0889 144.851 54.3136 144.531 54.7629V57.5884H143.455V53.1085H144.415L144.476 53.7008C144.599 53.5034 144.776 53.34 145.001 53.2107C145.225 53.0881 145.491 53.02 145.79 53.02Z" fill="white"/>
<path d="M148.498 53.02C149.158 53.02 149.662 53.2379 150.016 53.6668C150.37 54.0957 150.547 54.6472 150.547 55.3008V55.6752H147.381C147.402 56.0225 147.524 56.2948 147.735 56.4854C147.946 56.6761 148.239 56.7714 148.614 56.7714C149.117 56.7714 149.499 56.6012 149.751 56.2676L150.459 56.8258C150.003 57.3909 149.383 57.6769 148.593 57.6769C147.906 57.6769 147.354 57.459 146.932 57.0233C146.51 56.5876 146.299 56.0293 146.299 55.3553C146.299 54.6744 146.503 54.1161 146.912 53.6736C147.327 53.2447 147.858 53.02 148.498 53.02ZM148.484 53.8779C148.171 53.8779 147.912 53.9732 147.715 54.1638C147.518 54.3544 147.409 54.6064 147.388 54.9195H149.492C149.478 54.6064 149.383 54.3544 149.206 54.1638C149.036 53.9732 148.791 53.8779 148.484 53.8779Z" fill="white"/>
<path d="M155.395 53.02C155.987 53.02 156.437 53.2243 156.736 53.6328L156.791 53.1085H157.751V57.5884H156.791L156.736 57.0641C156.437 57.4726 155.987 57.6769 155.395 57.6769C154.796 57.6769 154.313 57.459 153.945 57.0165C153.577 56.5807 153.387 56.0225 153.387 55.3485C153.387 54.6676 153.571 54.1093 153.945 53.6736C154.319 53.2379 154.796 53.02 155.395 53.02ZM155.627 53.9664C155.279 53.9664 155 54.0889 154.789 54.3408C154.578 54.5927 154.476 54.9263 154.476 55.3485C154.476 55.7706 154.578 56.1042 154.789 56.3561C155 56.608 155.279 56.7305 155.627 56.7305C156.056 56.7305 156.403 56.5059 156.682 56.0633V54.62C156.41 54.1842 156.056 53.9664 155.627 53.9664Z" fill="white"/>
<path d="M163.274 53.1152L160.897 57.6836H160.863L158.48 53.1152H159.638L160.884 55.6956L162.137 53.1152H163.274Z" fill="white"/>
<path d="M165.67 53.02C166.33 53.02 166.834 53.2379 167.188 53.6668C167.542 54.0957 167.719 54.6472 167.719 55.3008V55.6752H164.553C164.574 56.0225 164.696 56.2948 164.907 56.4854C165.118 56.6761 165.411 56.7714 165.785 56.7714C166.289 56.7714 166.671 56.6012 166.923 56.2676L167.631 56.8258C167.174 57.3909 166.555 57.6769 165.765 57.6769C165.077 57.6769 164.526 57.459 164.104 57.0233C163.682 56.5876 163.471 56.0293 163.471 55.3553C163.471 54.6744 163.675 54.1161 164.083 53.6736C164.499 53.2447 165.023 53.02 165.67 53.02ZM165.649 53.8779C165.336 53.8779 165.077 53.9732 164.88 54.1638C164.683 54.3544 164.574 54.6064 164.553 54.9195H166.657C166.643 54.6064 166.548 54.3544 166.371 54.1638C166.201 53.9732 165.963 53.8779 165.649 53.8779Z" fill="white"/>
<path d="M171.055 53.02C171.586 53.02 172.001 53.197 172.301 53.5443C172.6 53.8915 172.743 54.3681 172.743 54.9672V57.5884H171.674V55.0285C171.674 54.7289 171.593 54.4838 171.429 54.3068C171.266 54.123 171.048 54.0345 170.776 54.0345C170.374 54.0345 170.034 54.2387 169.761 54.654V57.5884H168.686V53.1085H169.652L169.7 53.626C170.006 53.2243 170.456 53.02 171.055 53.02Z" fill="white"/>
<path d="M174.031 51.2087C174.154 51.0793 174.311 51.0181 174.501 51.0181C174.692 51.0181 174.848 51.0793 174.978 51.2087C175.107 51.3381 175.168 51.4947 175.168 51.6853C175.168 51.8759 175.107 52.0325 174.978 52.1551C174.848 52.2776 174.692 52.3389 174.501 52.3389C174.311 52.3389 174.154 52.2776 174.031 52.1551C173.909 52.0325 173.848 51.8759 173.848 51.6853C173.848 51.4947 173.909 51.3312 174.031 51.2087ZM175.046 53.115V57.5949H173.97V53.115H175.046Z" fill="white"/>
<path d="M178.654 53.02V54.0889H178.558C178.102 54.0889 177.714 54.3136 177.394 54.7629V57.5884H176.318V53.1085H177.278L177.34 53.7008C177.462 53.5034 177.639 53.34 177.864 53.2107C178.089 53.0881 178.347 53.02 178.654 53.02Z" fill="white"/>
<path d="M75.8138 7.26855V24.9837H72.5391V7.26855H75.8138Z" fill="white"/>
<path d="M78.47 7.71094C79.0759 7.71094 79.5798 7.91518 79.9746 8.31686C80.3695 8.71855 80.5738 9.22237 80.5738 9.83512C80.5738 10.2368 80.4376 10.6725 80.1721 11.1423L77.6666 15.3634H77.5781V7.86072C77.8505 7.7586 78.15 7.71094 78.47 7.71094Z" fill="white"/>
<path d="M85.4467 12.9326C86.8901 12.9326 87.9658 13.4569 88.6602 14.4917L88.8168 13.1641H91.7648V24.9833H88.8168L88.6602 23.6761C87.9522 24.7041 86.8833 25.2148 85.4467 25.2148C83.9829 25.2148 82.7983 24.6429 81.8792 23.4923C80.9669 22.3417 80.5039 20.8711 80.5039 19.0873C80.5039 17.3035 80.9601 15.8261 81.8792 14.6687C82.7983 13.5113 83.9829 12.9326 85.4467 12.9326ZM86.2433 15.9419C85.5216 15.9419 84.9361 16.2278 84.4936 16.7929C84.051 17.358 83.8264 18.1273 83.8264 19.0873C83.8264 20.0541 84.051 20.8098 84.4936 21.3749C84.9361 21.94 85.5216 22.2123 86.2433 22.2123C87.176 22.2123 87.9181 21.7221 88.4832 20.7417V17.4057C87.9181 16.4253 87.176 15.9419 86.2433 15.9419Z" fill="white"/>
<path d="M98.0905 12.9326C99.7109 12.9326 101.052 13.3479 102.101 14.1649L100.902 16.5887C99.9696 15.9215 99.03 15.5879 98.0701 15.5879C97.1101 15.5879 96.6335 15.901 96.6335 16.5206C96.6335 16.8134 96.7697 17.0448 97.042 17.2082C97.3143 17.3716 97.8454 17.5555 98.6283 17.7529C100.991 18.3452 102.169 19.5094 102.169 21.2523C102.169 22.4506 101.726 23.4106 100.848 24.1322C99.9696 24.8539 98.7781 25.2148 97.2735 25.2148C95.4557 25.2148 94.0191 24.7654 92.957 23.8599L94.1961 21.3885C95.1085 22.1783 96.1433 22.58 97.2939 22.58C98.356 22.58 98.887 22.2464 98.887 21.5791C98.887 21.266 98.7577 21.0209 98.499 20.8302C98.2403 20.6464 97.7501 20.4558 97.0284 20.2719C95.7416 19.9451 94.8157 19.5162 94.237 18.9784C93.6583 18.4405 93.3723 17.7257 93.3723 16.8202C93.3723 15.6219 93.7876 14.6755 94.6251 13.9743C95.4625 13.273 96.6131 12.9326 98.0905 12.9326Z" fill="white"/>
<path d="M107.792 12.9326C109.412 12.9326 110.753 13.3479 111.802 14.1649L110.603 16.5887C109.671 15.9215 108.731 15.5879 107.771 15.5879C106.811 15.5879 106.335 15.901 106.335 16.5206C106.335 16.8134 106.471 17.0448 106.743 17.2082C107.016 17.3716 107.547 17.5555 108.329 17.7529C110.692 18.3452 111.87 19.5094 111.87 21.2523C111.87 22.4506 111.427 23.4106 110.549 24.1322C109.671 24.8539 108.479 25.2148 106.975 25.2148C105.157 25.2148 103.72 24.7654 102.658 23.8599L103.897 21.3885C104.81 22.1783 105.844 22.58 106.995 22.58C108.057 22.58 108.588 22.2464 108.588 21.5791C108.588 21.266 108.459 21.0209 108.2 20.8302C107.941 20.6464 107.451 20.4558 106.73 20.2719C105.443 19.9451 104.517 19.5162 103.938 18.9784C103.359 18.4405 103.073 17.7257 103.073 16.8202C103.073 15.6219 103.489 14.6755 104.326 13.9743C105.157 13.2798 106.314 12.9326 107.792 12.9326Z" fill="white"/>
<path d="M123.512 13.1646V24.9837H120.591L120.434 23.7038C119.74 24.7114 118.657 25.222 117.18 25.222C115.879 25.222 114.879 24.7591 114.177 23.8331C113.476 22.9072 113.129 21.6409 113.129 20.0205V13.1646H116.404V19.8299C116.404 20.4835 116.553 21.0009 116.846 21.389C117.139 21.777 117.561 21.9745 118.106 21.9745C118.95 21.9745 119.658 21.5183 120.23 20.5992V13.1646H123.512Z" fill="white"/>
<path d="M131.948 12.9326V16.3572H131.662C130.552 16.3572 129.626 16.8746 128.87 17.9163V24.9765H125.596V13.1573H128.516L128.714 14.7164C129.395 13.5318 130.47 12.9326 131.948 12.9326Z" fill="white"/>
<path d="M137.199 12.9326C138.642 12.9326 139.718 13.4569 140.412 14.4917L140.569 13.1641H143.517V24.9833H140.569L140.412 23.6761C139.704 24.7041 138.635 25.2148 137.199 25.2148C135.735 25.2148 134.55 24.6429 133.631 23.4923C132.719 22.3417 132.256 20.8711 132.256 19.0873C132.256 17.3035 132.712 15.8261 133.631 14.6687C134.55 13.5113 135.735 12.9326 137.199 12.9326ZM137.995 15.9419C137.274 15.9419 136.688 16.2278 136.246 16.7929C135.803 17.358 135.578 18.1273 135.578 19.0873C135.578 20.0541 135.803 20.8098 136.246 21.3749C136.688 21.94 137.274 22.2123 137.995 22.2123C138.928 22.2123 139.67 21.7221 140.235 20.7417V17.4057C139.67 16.4253 138.921 15.9419 137.995 15.9419Z" fill="white"/>
<path d="M151.828 12.9326C153.19 12.9326 154.231 13.4024 154.96 14.3419C155.688 15.2815 156.056 16.5614 156.056 18.175V24.9833H152.781V18.3656C152.781 17.6984 152.618 17.1674 152.291 16.7657C151.964 16.3708 151.515 16.1734 150.943 16.1734C150.085 16.1734 149.384 16.6295 148.839 17.5486V24.9833H145.564V13.1641H148.512L148.669 14.4713C149.329 13.4432 150.385 12.9326 151.828 12.9326Z" fill="white"/>
<path d="M163.124 12.9326C165.132 12.9326 166.664 13.8381 167.726 15.6627L165.445 17.4329C164.914 16.4253 164.145 15.9215 163.144 15.9215C162.348 15.9215 161.728 16.221 161.286 16.8202C160.843 17.4193 160.618 18.175 160.618 19.0941C160.618 20.0132 160.85 20.7622 161.306 21.3545C161.762 21.9468 162.388 22.2395 163.185 22.2395C164.172 22.2395 164.955 21.7357 165.534 20.7213L167.747 22.4234C166.712 24.2888 165.173 25.2216 163.117 25.2216C161.422 25.2216 160.026 24.6429 158.93 23.4855C157.834 22.328 157.289 20.8643 157.289 19.0941C157.289 17.324 157.834 15.8534 158.93 14.6892C160.033 13.5181 161.429 12.9326 163.124 12.9326Z" fill="white"/>
<path d="M173.778 12.9326C175.459 12.9326 176.753 13.4977 177.652 14.6347C178.55 15.7717 179 17.2014 179 18.9239V20.02H171.429C171.456 20.769 171.708 21.3477 172.185 21.7562C172.654 22.1647 173.294 22.3757 174.091 22.3757C175.201 22.3757 176.038 21.9808 176.617 21.1843L178.789 22.934C177.652 24.459 176.059 25.2216 174.002 25.2216C172.246 25.2216 170.823 24.6497 169.74 23.5059C168.658 22.3621 168.113 20.8983 168.113 19.1145C168.113 17.3308 168.644 15.8534 169.7 14.6892C170.748 13.5181 172.11 12.9326 173.778 12.9326ZM175.18 16.1734C174.819 15.7376 174.316 15.5198 173.662 15.5198C173.008 15.5198 172.484 15.7376 172.076 16.1734C171.667 16.6091 171.449 17.1674 171.422 17.8482H175.766C175.739 17.1674 175.541 16.6091 175.18 16.1734Z" fill="white"/>
<path d="M78.8912 32.3774V35.802H78.6052C77.4955 35.802 76.5696 36.3194 75.8138 37.3611V44.4213H72.5391V32.6021H75.4598L75.6572 34.1612C76.3381 32.9766 77.4138 32.3774 78.8912 32.3774Z" fill="white"/>
<path d="M84.8969 32.3774C86.5786 32.3774 87.8721 32.9425 88.7708 34.0795C89.6695 35.2165 90.1189 36.6462 90.1189 38.3687V39.4649H82.5481C82.5753 40.2138 82.8272 40.7925 83.3038 41.201C83.7804 41.6095 84.4135 41.8205 85.2101 41.8205C86.3198 41.8205 87.1573 41.4257 87.736 40.6291L89.9078 42.3788C88.7708 43.9039 87.1777 44.6664 85.1216 44.6664C83.365 44.6664 81.9421 44.0945 80.8596 42.9507C79.7771 41.8069 79.2324 40.3431 79.2324 38.5594C79.2324 36.7756 79.7567 35.2982 80.8188 34.134C81.8672 32.963 83.2289 32.3774 84.8969 32.3774ZM86.2994 35.6182C85.9386 35.1825 85.4348 34.9646 84.7812 34.9646C84.1276 34.9646 83.6033 35.1825 83.1948 35.6182C82.7863 36.0539 82.5685 36.6122 82.5413 37.293H86.8781C86.8577 36.6122 86.6603 36.0539 86.2994 35.6182Z" fill="white"/>
<path d="M95.6738 28.6943V32.6091H98.8873V35.523H95.6738V39.9756C95.6738 40.4726 95.8168 40.8675 96.0959 41.1535C96.3751 41.4394 96.7359 41.5824 97.1785 41.5824C97.6823 41.5824 98.1657 41.4598 98.6423 41.2079L99.4865 43.9381C98.7648 44.4215 97.907 44.6597 96.9198 44.6597C95.5173 44.6597 94.4143 44.2581 93.6109 43.4479C92.8076 42.6377 92.4059 41.5007 92.4059 40.0233V35.523H90.3906V32.6091H92.4059V28.6943H95.6738Z" fill="white"/>
<path d="M106.616 32.3774V35.802H106.33C105.22 35.802 104.294 36.3194 103.538 37.3611V44.4213H100.264V32.6021H103.184L103.382 34.1612C104.063 32.9766 105.138 32.3774 106.616 32.3774Z" fill="white"/>
<path d="M111.863 32.3774C113.306 32.3774 114.382 32.9017 115.076 33.9365L115.233 32.6089H118.181V44.4281H115.233L115.076 43.1209C114.368 44.149 113.299 44.6596 111.863 44.6596C110.399 44.6596 109.214 44.0877 108.295 42.9371C107.383 41.7865 106.92 40.3159 106.92 38.5321C106.92 36.7484 107.376 35.271 108.295 34.1136C109.214 32.9562 110.399 32.3774 111.863 32.3774ZM112.659 35.3867C111.938 35.3867 111.352 35.6727 110.91 36.2377C110.467 36.8028 110.242 37.5722 110.242 38.5321C110.242 39.4989 110.467 40.2546 110.91 40.8197C111.352 41.3848 111.938 41.6571 112.659 41.6571C113.592 41.6571 114.334 41.1669 114.899 40.1865V36.8505C114.334 35.8769 113.592 35.3867 112.659 35.3867Z" fill="white"/>
<path d="M120.509 27.4279C120.87 27.0466 121.326 26.856 121.871 26.856C122.416 26.856 122.872 27.0534 123.246 27.4415C123.614 27.8295 123.798 28.3129 123.798 28.8848C123.798 29.4567 123.614 29.9401 123.246 30.3282C122.879 30.7163 122.423 30.9137 121.871 30.9137C121.326 30.9137 120.87 30.7231 120.509 30.3418C120.149 29.9605 119.965 29.4772 119.965 28.8848C119.965 28.2925 120.149 27.8091 120.509 27.4279ZM123.512 32.609V44.4281H120.237V32.609H123.512Z" fill="white"/>
<path d="M129.709 28.6943V32.6091H132.923V35.523H129.709V39.9756C129.709 40.4726 129.852 40.8675 130.131 41.1535C130.41 41.4394 130.771 41.5824 131.214 41.5824C131.717 41.5824 132.201 41.4598 132.677 41.2079L133.522 43.9381C132.8 44.4215 131.942 44.6597 130.955 44.6597C129.552 44.6597 128.449 44.2581 127.646 43.4479C126.843 42.6377 126.441 41.5007 126.441 40.0233V35.523H124.426V32.6091H126.441V28.6943H129.709Z" fill="white"/>
<path d="M139.274 32.3774C140.956 32.3774 142.249 32.9425 143.148 34.0795C144.046 35.2165 144.496 36.6462 144.496 38.3687V39.4649H136.925C136.952 40.2138 137.204 40.7925 137.681 41.201C138.151 41.6095 138.79 41.8205 139.587 41.8205C140.697 41.8205 141.534 41.4257 142.113 40.6291L144.285 42.3788C143.148 43.9039 141.555 44.6664 139.499 44.6664C137.742 44.6664 136.319 44.0945 135.237 42.9507C134.154 41.8069 133.609 40.3431 133.609 38.5594C133.609 36.7756 134.134 35.2982 135.196 34.134C136.244 32.963 137.606 32.3774 139.274 32.3774ZM140.683 35.6182C140.322 35.1825 139.819 34.9646 139.165 34.9646C138.511 34.9646 137.987 35.1825 137.579 35.6182C137.17 36.0539 136.952 36.6122 136.925 37.293H141.262C141.241 36.6122 141.044 36.0539 140.683 35.6182Z" fill="white"/>
<path d="M40.8794 15.7585C43.6231 18.5022 42.7516 23.8331 38.939 27.6457C35.0923 31.4584 29.7955 32.2958 27.0517 29.552C24.308 26.8083 25.1795 21.4774 29.0261 17.6648C32.8047 13.8521 38.1356 13.0079 40.8794 15.7585Z" fill="white"/>
<path d="M69.0939 11.2647C68.8556 10.1141 68.3995 9.20859 67.9161 8.52095C67.4327 7.83332 66.9221 7.36354 66.568 7.09121C66.5 7.03674 66.4251 6.98908 66.3502 6.93461C66.2753 6.88015 66.2004 6.83249 66.1187 6.78483C65.7715 6.57377 65.3834 6.37635 64.9545 6.20614C64.5256 6.03593 64.0558 5.89294 63.5452 5.78401C63.5179 5.7772 63.4907 5.7704 63.4635 5.76359C63.4362 5.75678 63.409 5.74997 63.3818 5.74316C62.2448 5.55934 61.0261 5.607 59.787 5.87252C58.5479 6.13804 57.2952 6.62144 56.0697 7.30227C55.6544 7.53375 55.2391 7.77885 54.8306 8.05118C54.4221 8.32351 54.0204 8.61626 53.6323 8.93625C53.5574 8.99752 53.4893 9.052 53.4212 9.11327C53.3532 9.17454 53.2851 9.23581 53.217 9.29709C53.1081 9.3924 52.9991 9.48773 52.897 9.58304C52.7881 9.67836 52.686 9.78048 52.577 9.87579C52.5158 9.93707 52.4545 9.99154 52.4 10.0528C52.3387 10.1141 52.2843 10.1685 52.223 10.2298C52.0256 10.4273 51.8349 10.6247 51.6443 10.8358C51.4537 11.04 51.2698 11.2511 51.0928 11.4757C50.6435 12.0204 50.2418 12.5855 49.8741 13.1574C49.5065 13.7293 49.1797 14.3148 48.8937 14.9003C48.0223 16.5547 47.3006 18.3589 46.6742 20.2584C46.0479 22.1579 45.5168 24.1596 45.0266 26.2157C43.3995 33.0308 40.9213 36.4077 38.8379 38.0825C36.7614 39.7573 35.0866 39.7301 35.0866 39.7301C31.4782 39.9344 28.7821 38.5182 26.7532 36.4009C24.7244 34.2835 23.3627 31.4785 22.4164 28.8981C21.7287 27.0327 21.1023 25.4055 20.5236 23.9417C19.9449 22.4779 19.4207 21.1707 18.9373 19.952C18.2905 18.3317 17.562 17.147 16.6361 16.4117C15.7102 15.6765 14.58 15.3837 13.1298 15.5403C11.7682 15.6901 10.427 16.2551 9.26275 17.0585C8.09853 17.8619 7.11132 18.8968 6.44411 19.9793C5.75647 21.1026 5.24586 22.2941 5.06885 23.5264C4.89183 24.7587 5.04161 26.0387 5.6884 27.3458C5.83138 27.6386 5.97434 27.9245 6.12412 28.2105C6.2739 28.4964 6.42369 28.7824 6.57347 29.0547C7.13856 30.0896 7.73769 31.0836 8.36405 32.0367C8.99041 32.9899 9.65083 33.9022 10.3317 34.7601C11.4686 36.1013 12.7009 37.4766 14.0353 38.7429C15.3698 40.0092 16.7995 41.1735 18.3178 42.0926C18.3178 42.0926 19.8224 43.1002 22.5593 44.1078C25.2962 45.1155 29.2519 46.1231 34.147 46.1231C40.0634 46.021 44.9109 44.8363 48.9959 42.787C53.0808 40.7377 56.3897 37.8306 59.2355 34.2971C59.2355 34.2971 59.5623 33.909 60.1002 33.201C60.638 32.4929 61.3869 31.4648 62.2243 30.1849C62.2924 30.0828 62.3605 29.9738 62.4286 29.8717C62.4967 29.7696 62.5648 29.6607 62.6329 29.5585C62.6329 29.5517 62.6397 29.5517 62.6397 29.5449C62.6397 29.5381 62.6465 29.5381 62.6465 29.5313C62.7282 29.4088 62.8099 29.2794 62.8848 29.1569C62.9665 29.0343 63.0414 28.9049 63.1163 28.7824C63.6133 27.979 64.1307 27.1076 64.6413 26.1816C65.1519 25.2557 65.6625 24.2685 66.1459 23.2405C66.6634 22.1375 67.1604 20.9869 67.6029 19.8091C68.0454 18.6244 68.4335 17.4058 68.7535 16.1735C68.8148 15.9215 68.8761 15.6764 68.9373 15.4245C68.9986 15.1726 69.0531 14.9207 69.1007 14.6688C69.128 14.4918 69.1552 14.3216 69.1756 14.1514C69.196 13.9812 69.2097 13.8178 69.2233 13.6544C69.2437 13.348 69.2505 12.9804 69.2301 12.5719C69.2097 12.1634 69.1824 11.7277 69.0939 11.2647Z" fill="white"/>
</svg>
