<svg width="72" height="70" viewBox="0 0 72 70" fill="none" xmlns="http://www.w3.org/2000/svg">
<path d="M56.2284 37.1222H71.9598C71.9598 27.2768 68.169 17.8346 61.4215 10.8728C54.674 3.91108 45.5223 0 35.9799 0C26.4374 0 17.2858 3.91108 10.5383 10.8728C3.79073 17.8346 0 27.2768 0 37.1222H15.7322C15.7674 31.6054 17.9162 26.3269 21.7096 22.4387C25.5031 18.5505 30.6331 16.3682 35.9803 16.3682C41.3275 16.3682 46.4576 18.5505 50.251 22.4387C54.0445 26.3269 56.1932 31.6054 56.2284 37.1222Z" fill="white"/>
<path d="M51.0342 69.8081H48.7116V58.3763H51.0342V69.8081Z" fill="white"/>
<path d="M16.2836 65.1963C16.6137 65.2744 16.9314 65.4005 17.227 65.5708C17.5216 65.7396 17.7726 65.9788 17.9592 66.2683C18.1663 66.622 18.2662 67.0316 18.2459 67.4443C18.263 67.8803 18.1524 68.3116 17.9285 68.6818C17.7203 69.0044 17.442 69.2723 17.1157 69.4643C16.77 69.6677 16.3931 69.8084 16.0013 69.8804C15.5966 69.9594 15.1857 69.9994 14.7738 69.9999C14.2344 69.9982 13.6978 69.9203 13.1789 69.7683C12.6613 69.6258 12.1905 69.3417 11.8164 68.946L13.2254 67.3321C13.4211 67.5916 13.666 67.807 13.9452 67.9654C14.2302 68.1143 14.5465 68.1883 14.8659 68.1807C15.1133 68.1843 15.3595 68.1439 15.5936 68.0612C15.6883 68.0372 15.7723 67.9805 15.8316 67.9006C15.8909 67.8206 15.922 67.7222 15.9198 67.6216C15.9205 67.5254 15.8937 67.4312 15.8427 67.3507C15.7917 67.2702 15.7187 67.2071 15.6331 67.1693C15.4015 67.0537 15.1571 66.9677 14.9053 66.9133L13.9601 66.6898C13.6316 66.6115 13.3142 66.4899 13.0158 66.328C12.7219 66.168 12.4717 65.9344 12.2881 65.6486C12.0812 65.2948 11.9817 64.8852 12.0023 64.4726C11.991 64.0608 12.0844 63.6532 12.2732 63.2903C12.4482 62.9671 12.6915 62.6888 12.9852 62.4761C13.2927 62.2567 13.6365 62.097 13.9996 62.0048C14.3788 61.9037 14.7688 61.8527 15.1605 61.8528C15.6687 61.855 16.1742 61.9302 16.6624 62.0763C17.1535 62.2164 17.5981 62.4926 17.9478 62.875L16.523 64.3251C16.3642 64.1145 16.1595 63.9454 15.9255 63.8316C15.6915 63.7178 15.4348 63.6625 15.1762 63.6702C14.9768 63.6709 14.7803 63.7202 14.6028 63.814C14.5136 63.8583 14.4393 63.9293 14.3898 64.0177C14.3402 64.1061 14.3176 64.2079 14.3249 64.3098C14.3239 64.4021 14.351 64.4925 14.4022 64.5682C14.4534 64.644 14.5263 64.7013 14.6107 64.7322C14.8448 64.8377 15.0886 64.9183 15.3384 64.9729C15.6325 65.0416 15.9475 65.1161 16.2836 65.1963Z" fill="white"/>
<path fill-rule="evenodd" clip-rule="evenodd" d="M24.9691 62.1369C25.4615 62.3171 25.9142 62.5967 26.3009 62.9592V62.9628C26.6797 63.3229 26.9826 63.7595 27.1909 64.2455C27.4056 64.7769 27.5162 65.347 27.5162 65.9227C27.5162 66.4985 27.4056 67.0685 27.1909 67.5999C26.9834 68.0874 26.6804 68.5254 26.3009 68.8863C25.9142 69.2488 25.4615 69.5283 24.9691 69.7086C23.9118 70.0921 22.7594 70.0921 21.7022 69.7086C21.2098 69.5283 20.757 69.2488 20.3703 68.8863C19.9906 68.5257 19.6875 68.0876 19.4804 67.5999C19.2657 67.0685 19.1551 66.4985 19.1551 65.9227C19.1551 65.347 19.2657 64.7769 19.4804 64.2455C19.688 63.7581 19.9909 63.3201 20.3703 62.9592C20.757 62.5967 21.2098 62.3171 21.7022 62.1369C22.7594 61.7533 23.9118 61.7533 24.9691 62.1369ZM23.3356 67.8875C23.8417 67.8875 24.3299 67.6942 24.7061 67.3448C25.0215 66.9423 25.1936 66.4403 25.1936 65.9227C25.1936 65.4051 25.0215 64.9031 24.7061 64.5006C24.3299 64.1513 23.8417 63.9579 23.3356 63.9579C22.8295 63.9579 22.3413 64.1513 21.9652 64.5006C21.6497 64.9031 21.4776 65.4051 21.4776 65.9227C21.4776 66.4403 21.6497 66.9423 21.9652 67.3448C22.3413 67.6942 22.8295 67.8875 23.3356 67.8875Z" fill="white"/>
<path d="M33.4923 64.1288C33.2871 64.0179 33.0586 63.9604 32.8269 63.9615C32.5738 63.9457 32.3205 63.986 32.0838 64.0796C31.8472 64.1732 31.6326 64.318 31.4547 64.5043C31.1392 64.9068 30.9671 65.4087 30.9671 65.9263C30.9671 66.444 31.1392 66.9459 31.4547 67.3484C31.6324 67.5344 31.8467 67.6791 32.083 67.7727C32.3194 67.8663 32.5724 67.9067 32.8251 67.8912C33.0585 67.8981 33.289 67.8373 33.4906 67.7157C33.6701 67.6035 33.8319 67.4634 33.9702 67.3005L35.5037 68.9613C35.1519 69.3389 34.712 69.6167 34.2262 69.7683C33.2361 70.0954 32.1689 70.0757 31.1908 69.7122C30.6986 69.5319 30.2462 69.2524 29.8598 68.8899C29.4801 68.5291 29.1768 68.0911 28.969 67.6035C28.7548 67.072 28.6446 66.502 28.6446 65.9263C28.6446 65.3507 28.7548 64.7807 28.969 64.2492C29.1772 63.7618 29.4804 63.3239 29.8598 62.9628C30.2462 62.6003 30.6986 62.3207 31.1908 62.1405C31.715 61.9464 32.2682 61.849 32.8251 61.8528C33.3012 61.8581 33.774 61.9362 34.228 62.0844C34.7136 62.2363 35.1535 62.5141 35.5054 62.8913L33.9719 64.5522C33.848 64.3727 33.6834 64.2274 33.4923 64.1288Z" fill="white"/>
<path d="M38.6943 62.0428V69.8081H36.3726V62.0428H38.6943Z" fill="white"/>
<path d="M36.679 58.5261C36.9199 58.3222 37.2219 58.2107 37.5335 58.2108C37.7107 58.2079 37.8866 58.2426 38.0504 58.3126C38.2142 58.3826 38.3623 58.4865 38.4857 58.6179C38.706 58.8452 38.843 59.1443 38.8735 59.4643C38.904 59.7842 38.8261 60.1051 38.6529 60.3724C38.4798 60.6397 38.2222 60.8367 37.924 60.93C37.6259 61.0233 37.3056 61.007 37.0177 60.884C36.7299 60.7609 36.4923 60.5387 36.3455 60.2551C36.1986 59.9716 36.1516 59.6443 36.2124 59.329C36.2733 59.0137 36.4382 58.73 36.679 58.5261Z" fill="white"/>
<path fill-rule="evenodd" clip-rule="evenodd" d="M45.4693 62.1161C45.881 62.2726 46.2443 62.5403 46.5214 62.8913C46.7941 63.2596 46.9802 63.6882 47.065 64.1433C47.1744 64.7091 47.2261 65.2852 47.2193 65.8621V69.8045H45.0826V68.8302H45.0519C44.8086 69.2327 44.4484 69.5458 44.0226 69.7249C43.2691 70.039 42.4349 70.0814 41.6552 69.8452C41.3437 69.7517 41.0521 69.5983 40.796 69.3929C40.5483 69.1907 40.3473 68.9342 40.2077 68.642C40.0575 68.3182 39.9834 67.9624 39.9911 67.6035C39.9793 67.2108 40.0615 66.8212 40.2305 66.4691C40.387 66.1652 40.6097 65.903 40.881 65.7029C41.1662 65.4942 41.4825 65.335 41.8174 65.2316C42.1741 65.1182 42.5392 65.0353 42.909 64.9837C43.2838 64.9307 43.6611 64.8986 44.0392 64.8878C44.4162 64.8776 44.7646 64.8724 45.0844 64.8724C45.0924 64.6798 45.057 64.4879 44.9809 64.3117C44.9049 64.1356 44.7902 63.9801 44.646 63.8575C44.3521 63.6077 43.9815 63.4745 43.6008 63.482C43.2383 63.4777 42.88 63.5627 42.5557 63.7299C42.2358 63.8995 41.9496 64.1296 41.7122 64.4084L40.4733 63.0994C40.9097 62.6815 41.4266 62.3631 41.9902 62.1649C42.5677 61.957 43.1751 61.8515 43.7867 61.8528C44.3584 61.8342 44.9286 61.9234 45.4693 62.1161ZM44.9423 67.5556C45.0435 67.3592 45.0939 67.1392 45.0887 66.9169V66.4103H44.5162C44.34 66.4103 44.1208 66.4184 43.8577 66.4338C43.6007 66.4491 43.3463 66.4946 43.0993 66.5695C42.8728 66.6362 42.662 66.7504 42.4803 66.9051C42.3946 66.9822 42.327 67.0783 42.2826 67.1863C42.2382 67.2943 42.2183 67.4113 42.2243 67.5284C42.2185 67.6589 42.2491 67.7884 42.3123 67.9015C42.3755 68.0147 42.4688 68.1068 42.5811 68.1671C42.8065 68.3029 43.0628 68.3747 43.3238 68.3752C43.5466 68.3759 43.7683 68.3436 43.9822 68.2793C44.1832 68.2201 44.3737 68.1285 44.5469 68.0079C44.7109 67.8908 44.8463 67.7359 44.9423 67.5556Z" fill="white"/>
<path fill-rule="evenodd" clip-rule="evenodd" d="M58.1178 62.1405C58.5449 62.3238 58.926 62.605 59.2322 62.9628C59.5467 63.3391 59.7857 63.776 59.9354 64.2483C60.1064 64.7896 60.1899 65.3562 60.1827 65.9254V66.6763H54.8027C54.8775 67.1014 55.0906 67.4875 55.4068 67.7709C55.7277 68.0465 56.1354 68.1913 56.5527 68.1779C56.8922 68.1889 57.2274 68.0974 57.5172 67.9147C57.7854 67.7338 58.019 67.5035 58.2064 67.2353L59.8319 68.4656C59.4583 68.9577 58.9733 69.3475 58.4194 69.6009C57.8659 69.8638 57.2638 69.9999 56.6545 69.9999C56.0978 70.0036 55.5449 69.9062 55.021 69.7122C54.5287 69.5318 54.076 69.2523 53.6892 68.8899C53.3097 68.529 53.0066 68.0911 52.7992 67.6035C52.5845 67.0721 52.4739 66.5021 52.4739 65.9263C52.4739 65.3506 52.5845 64.7806 52.7992 64.2492C53.0071 63.7619 53.31 63.324 53.6892 62.9628C54.076 62.6004 54.5287 62.3209 55.021 62.1405C55.5449 61.9464 56.0978 61.8491 56.6545 61.8528C57.1561 61.8459 57.6538 61.9437 58.1178 62.1405ZM54.9281 64.497C54.8514 64.6706 54.8068 64.8575 54.7965 65.0479L57.8627 65.0507C57.8709 64.8594 57.8407 64.6684 57.774 64.4897C57.7073 64.311 57.6056 64.1484 57.4751 64.0122C57.3412 63.8693 57.1796 63.7571 57.0009 63.6827C56.8222 63.6084 56.6304 63.5736 56.4379 63.5806C56.0014 63.569 55.5773 63.7309 55.2533 64.033C55.1158 64.1635 55.0052 64.3214 54.9281 64.497Z" fill="white"/>
<path d="M2.32516 54.9677H0.00342495V43.536H2.32516V54.9677Z" fill="white"/>
<path fill-rule="evenodd" clip-rule="evenodd" d="M9.1001 47.2757C9.51186 47.4321 9.87527 47.6999 10.1522 48.051C10.4274 48.4185 10.6156 48.8472 10.702 49.303C10.8114 49.8688 10.8631 50.4448 10.8563 51.0217V54.9659H8.71957V53.9916H8.68889C8.44414 54.3942 8.08234 54.7067 7.65516 54.8845C7.22493 55.0657 6.76435 55.158 6.29964 55.1559C5.95638 55.157 5.61483 55.1058 5.28607 55.0039C4.97438 54.9109 4.68275 54.7574 4.42682 54.5516C4.17889 54.3497 3.97788 54.0932 3.8385 53.8007C3.68816 53.4769 3.61367 53.1212 3.62105 52.7622C3.6095 52.3695 3.69201 51.9798 3.86129 51.6278C4.01731 51.3236 4.2401 51.0612 4.51187 50.8616C4.79705 50.653 5.11335 50.4938 5.44828 50.3903C5.80494 50.2769 6.17004 50.194 6.53988 50.1424C6.91465 50.0894 7.29193 50.0574 7.67006 50.0466C8.04708 50.0366 8.39516 50.0303 8.71519 50.0303C8.72291 49.8378 8.68734 49.6461 8.61129 49.4702C8.53523 49.2942 8.42075 49.1389 8.2768 49.0162C7.98355 48.7674 7.61391 48.6346 7.2343 48.6417C6.87172 48.6368 6.51331 48.7218 6.18917 48.8895C5.86875 49.0587 5.58225 49.2889 5.34482 49.568L4.10679 48.2581C4.54366 47.8408 5.06036 47.5225 5.62364 47.3236C6.20128 47.1165 6.80864 47.0113 7.42018 47.0124C7.991 46.9942 8.56026 47.0834 9.1001 47.2757ZM8.57228 52.7152C8.67413 52.5191 8.72488 52.299 8.71957 52.0765V51.5645H8.14703C7.9708 51.5645 7.7516 51.5718 7.48857 51.588C7.23157 51.6033 6.9771 51.6488 6.73014 51.7237C6.50337 51.7898 6.29251 51.9041 6.11113 52.0593C6.0254 52.1364 5.95779 52.2325 5.91343 52.3405C5.86907 52.4485 5.84912 52.5655 5.85511 52.6826C5.84917 52.813 5.87954 52.9425 5.94262 53.0556C6.0057 53.1688 6.09886 53.261 6.21108 53.3213C6.43697 53.4567 6.69337 53.5284 6.9546 53.5294C7.17738 53.5297 7.39908 53.4974 7.61307 53.4335C7.81412 53.3747 8.00475 53.2831 8.17772 53.1621C8.34115 53.0468 8.47625 52.8938 8.57228 52.7152Z" fill="white"/>
<path d="M18.0863 53.3385C18.3338 53.3422 18.58 53.3015 18.814 53.2182C18.9082 53.1938 18.9915 53.137 19.0503 53.0573C19.1091 52.9776 19.1399 52.8796 19.1376 52.7794C19.1383 52.6833 19.1115 52.589 19.0605 52.5085C19.0095 52.4281 18.9366 52.3649 18.8509 52.3271C18.6193 52.2117 18.3749 52.126 18.1231 52.072L17.1788 51.8486C16.8502 51.7706 16.5328 51.6489 16.2345 51.4867C15.9403 51.3276 15.6899 51.0942 15.5068 50.8083C15.2996 50.4546 15.1998 50.045 15.2201 49.6322C15.2092 49.2205 15.3026 48.813 15.491 48.4499C15.6661 48.1265 15.9097 47.8482 16.2038 47.6357C16.5109 47.416 16.8545 47.2562 17.2174 47.1644C17.5969 47.0634 17.9872 47.0124 18.3792 47.0124C18.8875 47.0142 19.393 47.0894 19.8811 47.2359C20.372 47.376 20.8162 47.6523 21.1656 48.0347L19.7434 49.4839C19.5846 49.2732 19.3799 49.1042 19.1459 48.9904C18.9119 48.8766 18.6552 48.8213 18.3967 48.8289C18.1972 48.8297 18.0008 48.879 17.8233 48.9728C17.7339 49.0167 17.6595 49.0875 17.6098 49.1758C17.56 49.264 17.5373 49.3657 17.5444 49.4676C17.5436 49.5602 17.5708 49.6507 17.6222 49.7266C17.6736 49.8025 17.7466 49.8599 17.8312 49.891C18.0652 49.9963 18.309 50.0766 18.5589 50.1307L19.5032 50.355C19.8337 50.4327 20.1517 50.5588 20.4475 50.7295C20.74 50.8987 20.9895 51.1371 21.1752 51.4252C21.3824 51.7789 21.4823 52.1885 21.4619 52.6012C21.4791 53.0373 21.3685 53.4685 21.1445 53.8387C20.9358 54.1609 20.6576 54.4287 20.3318 54.6212C19.9856 54.8242 19.6084 54.9649 19.2165 55.0374C18.8132 55.1161 18.4038 55.1561 17.9934 55.1568C17.454 55.1546 16.9175 55.0767 16.3985 54.9252C15.8811 54.7821 15.4105 54.4981 15.036 54.1029L16.445 52.489C16.6406 52.7488 16.8859 52.9644 17.1657 53.1223C17.4506 53.2716 17.7668 53.3458 18.0863 53.3385Z" fill="white"/>
<path fill-rule="evenodd" clip-rule="evenodd" d="M28.1483 52.3959L29.7739 53.6262L29.7765 53.6298C29.4022 54.1194 28.9176 54.5073 28.3649 54.7596C27.8115 55.023 27.2093 55.1594 26.5999 55.1595C26.043 55.1633 25.4898 55.0659 24.9656 54.8718C24.4734 54.6916 24.021 54.412 23.6346 54.0495C23.255 53.6885 22.9518 53.2506 22.7438 52.7631C22.5296 52.2316 22.4194 51.6616 22.4194 51.086C22.4194 50.5103 22.5296 49.9403 22.7438 49.4088C22.9538 48.9209 23.2592 48.483 23.6408 48.1224C24.0271 47.7599 24.4796 47.4804 24.9717 47.3001C25.4959 47.106 26.0491 47.0086 26.6061 47.0124C27.1074 47.0055 27.6049 47.1033 28.0685 47.3001C28.4959 47.4834 28.8773 47.7646 29.1838 48.1224C29.4978 48.4991 29.7362 48.9363 29.8852 49.4088C30.057 49.9499 30.1408 50.5166 30.1334 51.086V51.8368H24.7446C24.8197 52.2616 25.0327 52.6474 25.3487 52.9305C25.6694 53.2067 26.0772 53.3519 26.4947 53.3385C26.8343 53.3494 27.1695 53.2576 27.4592 53.0743C27.7274 52.8938 27.961 52.6638 28.1483 52.3959ZM25.1988 49.1971C25.0619 49.3262 24.9514 49.4821 24.8735 49.6558H24.8762C24.7965 49.8305 24.7498 50.0193 24.7385 50.2121H27.8073C27.8156 50.0209 27.7856 49.8299 27.7191 49.6512C27.6525 49.4725 27.5509 49.3099 27.4206 49.1736C27.2864 49.0308 27.1247 48.9186 26.9459 48.8442C26.7671 48.7699 26.5751 48.7351 26.3825 48.7421C26.1494 48.7375 25.9178 48.7808 25.7012 48.8696C25.5165 48.9476 25.3464 49.0585 25.1988 49.1971Z" fill="white"/>
<path d="M33.8527 54.8718C33.3606 54.6916 32.9081 54.412 32.5217 54.0495H32.5244C32.1436 53.689 31.8394 53.251 31.6309 52.7631C31.4162 52.2317 31.3056 51.6617 31.3056 51.086C31.3056 50.5102 31.4162 49.9402 31.6309 49.4088C31.8388 48.9213 32.1421 48.4833 32.5217 48.1224C32.9081 47.7599 33.3606 47.4804 33.8527 47.3001C34.3769 47.106 34.9301 47.0086 35.487 47.0124C35.9632 47.0174 36.436 47.0955 36.8899 47.244C37.3754 47.3957 37.815 47.6736 38.1665 48.051L36.6339 49.7118C36.5097 49.5326 36.3451 49.3873 36.1543 49.2885C35.949 49.1775 35.7205 49.12 35.4888 49.1211C35.236 49.1054 34.983 49.1458 34.7466 49.2394C34.5102 49.333 34.296 49.4778 34.1184 49.6639C33.8029 50.0664 33.6308 50.5683 33.6308 51.086C33.6308 51.6036 33.8029 52.1055 34.1184 52.508C34.296 52.6942 34.5102 52.8389 34.7466 52.9326C34.983 53.0262 35.236 53.0665 35.4888 53.0508C35.7222 53.0577 35.9527 52.9969 36.1543 52.8753C36.3338 52.7631 36.4956 52.623 36.6339 52.4601L38.1665 54.121C37.815 54.4983 37.3754 54.7762 36.8899 54.9279C36.4359 55.076 35.9632 55.1541 35.487 55.1595C34.9301 55.1633 34.3769 55.0659 33.8527 54.8718Z" fill="white"/>
<path d="M42.5618 55.0473C42.3116 55.1237 42.0517 55.1615 41.7907 55.1595C41.2992 55.1802 40.8095 55.0855 40.3585 54.8827C40.0099 54.7121 39.7148 54.4438 39.5071 54.1083C39.2964 53.7521 39.1593 53.3548 39.1047 52.9414C39.0349 52.4602 39.0012 51.9742 39.0038 51.4876V47.2069H41.3264V51.0127C41.327 51.2346 41.3346 51.4662 41.3492 51.7074C41.3624 51.9346 41.4094 52.1582 41.4886 52.3705C41.5625 52.5897 41.7059 52.7767 41.8955 52.9013C42.0852 53.0259 42.3101 53.0808 42.5338 53.0571C42.7864 53.0683 43.0374 53.0106 43.2615 52.8898C43.4417 52.783 43.5893 52.6263 43.6876 52.4375C43.7891 52.2404 43.8545 52.0258 43.8805 51.8042C43.9127 51.5608 43.9286 51.3154 43.9279 51.0697V47.2069H46.247V54.9677H44.0173V53.9129H43.9866C43.8965 54.0734 43.7901 54.2235 43.6692 54.3607C43.5319 54.5169 43.3729 54.6513 43.1975 54.7596C42.9983 54.883 42.7847 54.9797 42.5618 55.0473Z" fill="white"/>
<path d="M53.1868 47.0921V49.2794L53.1859 49.2803C53.026 49.2287 52.8628 49.1888 52.6975 49.1609C52.531 49.1341 52.3627 49.1207 52.1942 49.1211C51.8341 49.1048 51.475 49.1703 51.1421 49.3129C50.8978 49.4281 50.691 49.6137 50.5467 49.8475C50.3997 50.0985 50.307 50.3793 50.2749 50.6707C50.2321 51.0203 50.2116 51.3723 50.2136 51.7246V54.9704H47.891V47.2069H50.2136V48.4526H50.2451C50.4504 48.0246 50.7534 47.6546 51.1281 47.3743C51.5105 47.1215 51.9587 46.9952 52.4126 47.0124C52.5467 47.0124 52.6817 47.0179 52.8159 47.0287C52.9412 47.0375 53.0654 47.0587 53.1868 47.0921Z" fill="white"/>
<path d="M56.2402 45.8333C55.9993 46.0372 55.6973 46.1486 55.3857 46.1485L55.3849 46.1494C55.2077 46.152 55.0319 46.1172 54.8683 46.047C54.7047 45.9769 54.5567 45.8729 54.4335 45.7415C54.2132 45.5141 54.0762 45.215 54.0457 44.8951C54.0152 44.5751 54.0931 44.2542 54.2663 43.9869C54.4394 43.7197 54.697 43.5226 54.9952 43.4293C55.2933 43.336 55.6136 43.3523 55.9015 43.4754C56.1893 43.5984 56.4269 43.8207 56.5738 44.1042C56.7206 44.3877 56.7676 44.715 56.7068 45.0303C56.646 45.3456 56.481 45.6294 56.2402 45.8333Z" fill="white"/>
<path d="M56.5422 54.9677H54.2205V47.2069H56.5422V54.9677Z" fill="white"/>
<path d="M58.9762 44.9038H61.2953L61.2988 47.2069H63.3435V49.1211H61.2988V51.7093C61.2978 51.9039 61.3083 52.0985 61.3304 52.2918C61.346 52.4509 61.3935 52.6049 61.4698 52.7441C61.5466 52.8772 61.6632 52.981 61.8021 53.04C61.9917 53.1169 62.1947 53.1523 62.3983 53.144C62.5614 53.1408 62.7242 53.1275 62.8858 53.1042C63.0525 53.0926 63.212 53.0296 63.3435 52.9233V54.9207C63.083 55.0167 62.8126 55.0811 62.5377 55.1124C62.2652 55.1439 61.9912 55.1599 61.717 55.1604C61.3521 55.1637 60.9882 55.1208 60.6333 55.0328C60.3214 54.9562 60.0268 54.8176 59.7662 54.6249C59.517 54.4376 59.3175 54.1887 59.1857 53.9012C59.0376 53.5602 58.966 53.1891 58.9762 52.8156V49.1238H57.4856V47.2069H58.9762V44.9038Z" fill="white"/>
<path d="M27.4925 43.6011L28.1264 45.1037L24.9875 46.514L24.3536 45.0123L27.4925 43.6011Z" fill="white"/>
<path fill-rule="evenodd" clip-rule="evenodd" d="M71.7466 49.4088C71.9176 49.9501 72.0012 50.5167 71.9939 51.086L72 51.8404H66.6121C66.6872 52.2652 66.9003 52.651 67.2162 52.9341C67.5368 53.2105 67.9447 53.3557 68.3622 53.3421C68.7018 53.3532 69.0371 53.2614 69.3267 53.0779C69.5952 52.8979 69.8289 52.6678 70.0158 52.3995L71.6423 53.6298C71.2685 54.1193 70.7845 54.5071 70.2324 54.7596C69.6793 55.0231 69.0774 55.1595 68.4683 55.1595C67.9114 55.1633 67.3582 55.0659 66.834 54.8718C66.3418 54.6916 65.8894 54.412 65.503 54.0495C65.1232 53.6888 64.8199 53.2508 64.6122 52.7631C64.3975 52.2317 64.2869 51.6617 64.2869 51.086C64.2869 50.5102 64.3975 49.9402 64.6122 49.4088C64.8201 48.9213 65.1234 48.4833 65.503 48.1224C65.8894 47.7599 66.3418 47.4804 66.834 47.3001C67.3582 47.106 67.9114 47.0086 68.4683 47.0124C68.9696 47.0055 69.4671 47.1033 69.9308 47.3001C70.3579 47.4835 70.739 47.7647 71.0452 48.1224C71.3595 48.4989 71.5979 48.9362 71.7466 49.4088ZM66.7375 49.6558C66.6608 49.8297 66.6162 50.0168 66.606 50.2076H69.6739C69.6823 50.0163 69.6522 49.8252 69.5855 49.6465C69.5188 49.4677 69.4169 49.3052 69.2863 49.1691C69.1524 49.0262 68.9908 48.914 68.8121 48.8397C68.6335 48.7653 68.4416 48.7305 68.2491 48.7376C68.0155 48.7327 67.7832 48.7761 67.5661 48.8651C67.3812 48.9433 67.2109 49.0541 67.0628 49.1926C66.9257 49.3232 66.8152 49.4807 66.7375 49.6558Z" fill="white"/>
<path d="M69.3574 43.6011L69.9922 45.1037L66.8532 46.514L66.2193 45.0123L69.3574 43.6011Z" fill="white"/>
</svg>
