<svg width="30" height="30" viewBox="0 0 30 30" fill="none" xmlns="http://www.w3.org/2000/svg">
<rect y="0.00012207" width="30" height="30" rx="15" fill="white"/>
<path d="M24.0852 10.4197C23.8672 9.59853 23.2246 8.95179 22.4087 8.73232C20.9299 8.3335 15 8.3335 15 8.3335C15 8.3335 9.07014 8.3335 7.59129 8.73232C6.77542 8.95183 6.13285 9.59853 5.91476 10.4197C5.51851 11.9081 5.51851 15.0136 5.51851 15.0136C5.51851 15.0136 5.51851 18.1191 5.91476 19.6076C6.13285 20.4287 6.77542 21.0485 7.59129 21.268C9.07014 21.6668 15 21.6668 15 21.6668C15 21.6668 20.9299 21.6668 22.4087 21.268C23.2246 21.0485 23.8672 20.4287 24.0852 19.6076C24.4815 18.1191 24.4815 15.0136 24.4815 15.0136C24.4815 15.0136 24.4815 11.9081 24.0852 10.4197ZM13.0606 17.8332V12.1941L18.0168 15.0137L13.0606 17.8332Z" fill="#0071B9"/>
</svg>
